<svg width="30" height="30" viewBox="0 0 30 30" fill="none" xmlns="http://www.w3.org/2000/svg">
<path d="M27 15C27 11.8174 25.7357 8.76516 23.4853 6.51472C21.2348 4.26428 18.1826 3 15 3C11.8174 3 8.76516 4.26428 6.51472 6.51472C4.26428 8.76516 3 11.8174 3 15C3 18.1826 4.26428 21.2348 6.51472 23.4853C8.76516 25.7357 11.8174 27 15 27C18.1826 27 21.2348 25.7357 23.4853 23.4853C25.7357 21.2348 27 18.1826 27 15ZM30 15C30 18.9782 28.4196 22.7936 25.6066 25.6066C22.7936 28.4196 18.9782 30 15 30C13.0302 30 11.0796 29.612 9.25975 28.8582C7.43986 28.1044 5.78628 26.9995 4.3934 25.6066C1.58035 22.7936 0 18.9782 0 15C0 11.0218 1.58035 7.20644 4.3934 4.3934C7.20644 1.58035 11.0218 0 15 0C16.9698 0 18.9204 0.387987 20.7403 1.14181C22.5601 1.89563 24.2137 3.00052 25.6066 4.3934C26.9995 5.78628 28.1044 7.43986 28.8582 9.25975C29.612 11.0796 30 13.0302 30 15ZM20.25 9C21.45 9 22.5 10.05 22.5 11.25C22.5 12.45 21.45 13.5 20.25 13.5C19.05 13.5 18 12.45 18 11.25C18 10.05 19.05 9 20.25 9ZM12 11.25C12 12.45 10.95 13.5 9.75 13.5C8.55 13.5 7.5 12.45 7.5 11.25C7.5 10.05 8.55 9 9.75 9C10.95 9 12 10.05 12 11.25ZM15 18C17.625 18 19.935 19.08 21.285 20.715L19.155 22.845C18.48 21.75 16.875 21 15 21C13.125 21 11.52 21.75 10.845 22.845L8.715 20.715C10.065 19.08 12.375 18 15 18Z" fill="#D5D5D5"/>
</svg>
